<svg id="Layer_1" enable-background="new 0 0 1580 1580" height="512" viewBox="0 0 1580 1580" width="512" xmlns="http://www.w3.org/2000/svg"><g><g><g><path d="m1558 1225.9v69.9c0 68.3-55.4 123.7-123.7 123.7h-1286.2c-68.3 0-123.7-55.4-123.7-123.7v-186.6c0-32.8 13-64.3 36.2-87.5l201-201c23.2-23.2 54.6-36.2 87.5-36.2h593.1c32.8 0 64.3 13 87.4 36.2l210.9 210.9c15.8 15.8 35.6 27 57.3 32.5l166.6 41.9c55 13.8 93.6 63.2 93.6 119.9z" fill="#ffe04e"/></g><path d="m173 1019.8 159.8-159.8c7.7-7.7 18.2-12.1 29.2-12.1h567.5c10.9 0 21.4 4.3 29.2 12.1l159.8 159.8c13 13 3.8 35.2-14.6 35.2h-916.4c-18.3 0-27.5-22.2-14.5-35.2z" fill="#465a65"/><g><path d="m453 1091.8c-9.1 0-16.5-7.4-16.5-16.5v-247.7c0-9.1 7.4-16.5 16.5-16.5s16.5 7.4 16.5 16.5v247.7c0 9.1-7.4 16.5-16.5 16.5z" fill="#ffe04e"/></g><g><path d="m673.4 1091.8c-9.1 0-16.5-7.4-16.5-16.5v-247.7c0-9.1 7.4-16.5 16.5-16.5s16.5 7.4 16.5 16.5v247.7c0 9.1-7.4 16.5-16.5 16.5z" fill="#ffe04e"/></g><circle cx="314" cy="1419.5" fill="#465a65" r="129.5"/><path d="m314 1468.6c-27.1 0-49.1-22-49.1-49.1s22-49.1 49.1-49.1 49.1 22 49.1 49.1-22 49.1-49.1 49.1z" fill="#fff"/><circle cx="1268.3" cy="1419.5" fill="#465a65" r="129.5"/><path d="m1268.3 1468.6c-27.1 0-49.1-22-49.1-49.1s22-49.1 49.1-49.1 49.1 22 49.1 49.1-22 49.1-49.1 49.1z" fill="#fff"/><g><path d="m1558 1232.6v49.5h-77c-13.7 0-24.7-11.1-24.7-24.7 0-13.7 11.1-24.7 24.7-24.7z" fill="#f85f6a"/></g></g><g fill="#465a65"><path d="m510.7 1260.9h62.3v62.3h-62.3z"/><path d="m573 1198.6h62.3v62.3h-62.3z"/><path d="m635.4 1260.9h62.3v62.3h-62.3z"/><path d="m697.7 1198.6h62.3v62.3h-62.3z"/><path d="m760 1260.9h62.3v62.3h-62.3z"/><path d="m822.4 1198.6h62.3v62.3h-62.3z"/><path d="m884.7 1260.9h62.3v62.3h-62.3z"/><path d="m947 1198.6h62.3v62.3h-62.3z"/><path d="m1009.4 1260.9h62.3v62.3h-62.3z"/></g><path d="m753.3 784.5h-215.2l22-71.5c5.3-17.3 21.3-29.1 39.4-29.1h92.4c18.1 0 34.1 11.8 39.4 29.1z" fill="#e6ca46"/><path d="m1436.6 537.5c27.4 0 53.7-10.9 73.1-30.3l3.9-3.9c9.7-9.7 17.3-21.1 22.4-33.5 5.2-12.4 7.9-25.9 7.9-39.6 0-23.9-8.3-47-23.3-65.4-2.2-2.7-4.5-5.3-7-7.7l-91.8-91.8c-19.4-19.4-45.7-30.3-73.1-30.3h-174.1-560.5l-14.8-63.7c-10.1-43.3-37.9-80.4-76.6-102.2l-67.3-37.9v265.8c0 132.9 107.7 240.6 240.6 240.6z" fill="#f4f5f1"/><path d="m933.9 645 97.4-180.4h191.2s-70.9 180.4-288.6 180.4z" fill="#e5e6e2"/><path d="m1520.6 364.8h-211.5c-72.8 0-132.1-57.7-134.6-129.9h174.1c27.4 0 53.7 10.9 73.1 30.3l91.8 91.9c2.6 2.4 4.9 5 7.1 7.7z" fill="#9de4e6"/><g><path d="m1096.2 341.4h-51.7c-9.1 0-16.5-7.4-16.5-16.5s7.4-16.5 16.5-16.5h51.7c9.1 0 16.5 7.4 16.5 16.5s-7.4 16.5-16.5 16.5z" fill="#9de4e6"/></g><g><path d="m957.9 341.4h-51.7c-9.1 0-16.5-7.4-16.5-16.5s7.4-16.5 16.5-16.5h51.7c9.1 0 16.5 7.4 16.5 16.5s-7.3 16.5-16.5 16.5z" fill="#9de4e6"/></g><g><path d="m819.7 341.4h-51.7c-9.1 0-16.5-7.4-16.5-16.5s7.4-16.5 16.5-16.5h51.7c9.1 0 16.5 7.4 16.5 16.5s-7.4 16.5-16.5 16.5z" fill="#9de4e6"/></g><g><path d="m681.5 341.4h-51.7c-9.1 0-16.5-7.4-16.5-16.5s7.4-16.5 16.5-16.5h51.7c9.1 0 16.5 7.4 16.5 16.5s-7.4 16.5-16.5 16.5z" fill="#9de4e6"/></g><g><g><path d="m344.2 256.5h-305.7c-9.1 0-16.5-7.4-16.5-16.5s7.4-16.5 16.5-16.5h305.7c9.1 0 16.5 7.4 16.5 16.5 0 9.2-7.4 16.5-16.5 16.5z" fill="#9de4e6"/></g><g><path d="m344.2 354.5h-201.8c-9.1 0-16.5-7.4-16.5-16.5s7.4-16.5 16.5-16.5h201.8c9.1 0 16.5 7.4 16.5 16.5s-7.4 16.5-16.5 16.5z" fill="#9de4e6"/></g><g><path d="m344.2 452.5h-305.7c-9.1 0-16.5-7.4-16.5-16.5s7.4-16.5 16.5-16.5h305.7c9.1 0 16.5 7.4 16.5 16.5s-7.4 16.5-16.5 16.5z" fill="#9de4e6"/></g></g></g></svg>