<svg id="Layer_1" enable-background="new 0 0 512 512" viewBox="0 0 512 512" xmlns="http://www.w3.org/2000/svg" xmlns:xlink="http://www.w3.org/1999/xlink"><linearGradient id="lg1"><stop offset="0" stop-color="#7b7da1"/><stop offset=".075" stop-color="#74779a"/><stop offset=".4439" stop-color="#595b7e"/><stop offset=".7649" stop-color="#484b6c"/><stop offset="1" stop-color="#424566"/></linearGradient><linearGradient id="SVGID_1_" gradientUnits="userSpaceOnUse" x1="468.836" x2="468.836" xlink:href="#lg1" y1="404.021" y2="495.115"/><linearGradient id="SVGID_2_" gradientUnits="userSpaceOnUse" x1="43.169" x2="43.169" xlink:href="#lg1" y1="404.021" y2="495.115"/><linearGradient id="lg2"><stop offset="0" stop-color="#a1ddff"/><stop offset="1" stop-color="#1c83ff"/></linearGradient><linearGradient id="SVGID_3_" gradientUnits="userSpaceOnUse" x1="256.003" x2="256.003" xlink:href="#lg2" y1="111.822" y2="455.389"/><linearGradient id="lg3"><stop offset=".0000001565" stop-color="#1c83ff"/><stop offset="1" stop-color="#a1ddff"/></linearGradient><linearGradient id="SVGID_4_" gradientUnits="userSpaceOnUse" x1="444.167" x2="444.167" xlink:href="#lg3" y1="321.758" y2="415.477"/><linearGradient id="lg4"><stop offset="0" stop-color="#e9edff"/><stop offset="1" stop-color="#c4cbff"/></linearGradient><linearGradient id="SVGID_5_" gradientUnits="userSpaceOnUse" x1="437.981" x2="447.761" xlink:href="#lg4" y1="326.437" y2="377.378"/><linearGradient id="lg5"><stop offset="0" stop-color="#fff"/><stop offset="1" stop-color="#dadeff"/></linearGradient><linearGradient id="SVGID_6_" gradientUnits="userSpaceOnUse" x1="458.755" x2="464.87" xlink:href="#lg5" y1="333.254" y2="365.106"/><linearGradient id="SVGID_7_" gradientUnits="userSpaceOnUse" x1="456.093" x2="468.526" xlink:href="#lg5" y1="343.816" y2="356.248"/><radialGradient id="SVGID_8_" cx="461.897" cy="349.619" fx="461.823" fy="348.013" gradientUnits="userSpaceOnUse" r="3.201" xlink:href="#lg5"/><linearGradient id="lg6"><stop offset="0" stop-color="#fff"/><stop offset=".5492" stop-color="#fdfdff"/><stop offset=".7469" stop-color="#f6f7ff"/><stop offset=".8874" stop-color="#ebedff"/><stop offset="1" stop-color="#dadeff"/></linearGradient><linearGradient id="SVGID_9_" gradientUnits="userSpaceOnUse" x1="450.442" x2="474.493" xlink:href="#lg6" y1="338.158" y2="362.208"/><linearGradient id="SVGID_10_" gradientUnits="userSpaceOnUse" x1="429.211" x2="432.699" xlink:href="#lg5" y1="356.796" y2="374.962"/><linearGradient id="SVGID_11_" gradientUnits="userSpaceOnUse" x1="428.502" x2="433.859" xlink:href="#lg5" y1="363.629" y2="368.985"/><radialGradient id="SVGID_12_" cx="431.003" cy="366.129" fx="430.971" fy="365.437" gradientUnits="userSpaceOnUse" r="1.379" xlink:href="#lg5"/><linearGradient id="SVGID_13_" gradientUnits="userSpaceOnUse" x1="424.47" x2="438.187" xlink:href="#lg6" y1="359.593" y2="373.309"/><linearGradient id="SVGID_14_" gradientUnits="userSpaceOnUse" x1="430.059" x2="460.807" y1="341.591" y2="372.339"><stop offset=".00000186333" stop-color="#fff"/><stop offset=".9697" stop-color="#eaeeff" stop-opacity=".03"/><stop offset="1" stop-color="#e9edff" stop-opacity="0"/></linearGradient><linearGradient id="lg7"><stop offset="0" stop-color="#ffed81"/><stop offset=".2348" stop-color="#ffd968"/><stop offset=".7302" stop-color="#ffa629"/><stop offset="1" stop-color="#ff8804"/></linearGradient><linearGradient id="SVGID_15_" gradientUnits="userSpaceOnUse" x1="421.808" x2="443.269" xlink:href="#lg7" y1="333.337" y2="354.797"/><linearGradient id="lg8"><stop offset="0" stop-color="#7b7da1"/><stop offset=".3104" stop-color="#6d6f93"/><stop offset=".8987" stop-color="#494c6d"/><stop offset="1" stop-color="#424566"/></linearGradient><linearGradient id="SVGID_16_" gradientUnits="userSpaceOnUse" x1="256" x2="256" xlink:href="#lg8" y1="128.531" y2="261.339"/><linearGradient id="SVGID_17_" gradientUnits="userSpaceOnUse" x1="256" x2="256" xlink:href="#lg2" y1="243.454" y2="410.354"/><linearGradient id="SVGID_18_" gradientUnits="userSpaceOnUse" x1="67.838" x2="67.838" xlink:href="#lg3" y1="321.928" y2="410.675"/><linearGradient id="SVGID_19_" gradientUnits="userSpaceOnUse" x1="27.608" x2="96.073" xlink:href="#lg4" y1="329.115" y2="382.909"/><linearGradient id="SVGID_20_" gradientUnits="userSpaceOnUse" x1="39.231" x2="61.614" xlink:href="#lg5" y1="338.745" y2="361.128"/><linearGradient id="SVGID_21_" gradientUnits="userSpaceOnUse" x1="44.632" x2="55.398" xlink:href="#lg5" y1="344.143" y2="354.909"/><radialGradient id="SVGID_22_" cx="-1108.193" cy="349.619" fx="-1108.266" fy="348.013" gradientTransform="matrix(-1 0 0 1 -1058.085 0)" gradientUnits="userSpaceOnUse" r="3.201" xlink:href="#lg5"/><linearGradient id="SVGID_23_" gradientUnits="userSpaceOnUse" x1="40.454" x2="68.07" xlink:href="#lg6" y1="337.386" y2="365.003"/><linearGradient id="SVGID_24_" gradientUnits="userSpaceOnUse" x1="75.086" x2="88.026" xlink:href="#lg5" y1="360.215" y2="373.155"/><linearGradient id="SVGID_25_" gradientUnits="userSpaceOnUse" x1="78.755" x2="83.979" xlink:href="#lg5" y1="363.882" y2="369.107"/><radialGradient id="SVGID_26_" cx="-1139.087" cy="366.129" fx="-1139.118" fy="365.437" gradientTransform="matrix(-1 0 0 1 -1058.085 0)" gradientUnits="userSpaceOnUse" r="1.379" xlink:href="#lg5"/><linearGradient id="SVGID_27_" gradientUnits="userSpaceOnUse" x1="76.153" x2="90.291" xlink:href="#lg6" y1="359.81" y2="373.948"/><linearGradient id="SVGID_28_" gradientUnits="userSpaceOnUse" x1="77.417" x2="60.301" y1="332.659" y2="377.215"><stop offset=".00000186333" stop-color="#fff"/><stop offset=".4597" stop-color="#f8f9ff" stop-opacity=".54"/><stop offset="1" stop-color="#e9edff" stop-opacity="0"/></linearGradient><linearGradient id="SVGID_29_" gradientTransform="matrix(-1 0 0 1 -1058.085 0)" gradientUnits="userSpaceOnUse" x1="-1148.282" x2="-1126.821" xlink:href="#lg7" y1="333.337" y2="354.797"/><linearGradient id="lg9"><stop offset=".0000001565" stop-color="#006aeb"/><stop offset=".2023" stop-color="#036ceb"/><stop offset=".3602" stop-color="#0d73ed"/><stop offset=".5032" stop-color="#1e7fef"/><stop offset=".6372" stop-color="#3590f2"/><stop offset=".7652" stop-color="#53a5f5"/><stop offset=".8867" stop-color="#78bffa"/><stop offset="1" stop-color="#a1ddff"/></linearGradient><linearGradient id="SVGID_30_" gradientUnits="userSpaceOnUse" x1="431.132" x2="431.132" xlink:href="#lg9" y1="408.056" y2="501.688"/><linearGradient id="SVGID_31_" gradientUnits="userSpaceOnUse" x1="441.007" x2="441.007" y1="435.605" y2="392.893"><stop offset="0" stop-color="#424566"/><stop offset=".2401" stop-color="#474a6b"/><stop offset=".5297" stop-color="#55587a"/><stop offset=".8434" stop-color="#6d6f92"/><stop offset="1" stop-color="#7b7da1"/></linearGradient><linearGradient id="SVGID_32_" gradientUnits="userSpaceOnUse" x1="80.874" x2="80.874" xlink:href="#lg9" y1="405.332" y2="483.378"/><linearGradient id="SVGID_33_" gradientUnits="userSpaceOnUse" x1="70.998" x2="70.998" y1="389.554" y2="441.107"><stop offset="0" stop-color="#7b7da1"/><stop offset=".2298" stop-color="#636588"/><stop offset=".4766" stop-color="#515375"/><stop offset=".7304" stop-color="#46496a"/><stop offset="1" stop-color="#424566"/></linearGradient><linearGradient id="SVGID_34_" gradientUnits="userSpaceOnUse" x1="255.998" x2="255.998" xlink:href="#lg9" y1="406.013" y2="506.807"/><linearGradient id="SVGID_35_" gradientUnits="userSpaceOnUse" x1="255.998" x2="255.998" xlink:href="#lg1" y1="379.535" y2="484.982"/><linearGradient id="SVGID_36_" gradientUnits="userSpaceOnUse" x1="489.893" x2="489.893" xlink:href="#lg2" y1="205.758" y2="233.267"/><linearGradient id="SVGID_37_" gradientUnits="userSpaceOnUse" x1="483.677" x2="483.677" xlink:href="#lg1" y1="227.221" y2="242.438"/><linearGradient id="SVGID_38_" gradientUnits="userSpaceOnUse" x1="22.115" x2="22.115" xlink:href="#lg2" y1="205.962" y2="233.812"/><linearGradient id="SVGID_39_" gradientUnits="userSpaceOnUse" x1="28.298" x2="28.298" xlink:href="#lg1" y1="228.715" y2="240.418"/><linearGradient id="SVGID_40_" gradientUnits="userSpaceOnUse" x1="218.45" x2="218.45" y1="115.354" y2="256.698"><stop offset="0" stop-color="#afb3d9"/><stop offset=".1342" stop-color="#a4a7cd" stop-opacity=".866"/><stop offset=".455" stop-color="#8d90b5" stop-opacity=".545"/><stop offset=".752" stop-color="#8082a6" stop-opacity=".248"/><stop offset="1" stop-color="#7b7da1" stop-opacity="0"/></linearGradient><linearGradient id="SVGID_41_" gradientUnits="userSpaceOnUse" x1="255.998" x2="255.998" xlink:href="#lg8" y1="326.155" y2="389.123"/><linearGradient id="lg10"><stop offset="0" stop-color="#9295c0"/><stop offset=".3061" stop-color="#8487b2"/><stop offset=".8862" stop-color="#5e628d"/><stop offset="1" stop-color="#565a85"/></linearGradient><linearGradient id="SVGID_42_" gradientUnits="userSpaceOnUse" x1="131.266" x2="157.939" xlink:href="#lg10" y1="341.789" y2="368.463"/><linearGradient id="SVGID_43_" gradientUnits="userSpaceOnUse" x1="150.465" x2="177.891" xlink:href="#lg10" y1="342.833" y2="370.259"/><linearGradient id="SVGID_44_" gradientUnits="userSpaceOnUse" x1="170.591" x2="198.278" xlink:href="#lg10" y1="342.965" y2="370.652"/><linearGradient id="SVGID_45_" gradientUnits="userSpaceOnUse" x1="190.756" x2="218.639" xlink:href="#lg10" y1="343.07" y2="370.953"/><linearGradient id="SVGID_46_" gradientUnits="userSpaceOnUse" x1="210.958" x2="238.971" xlink:href="#lg10" y1="343.141" y2="371.155"/><linearGradient id="SVGID_47_" gradientUnits="userSpaceOnUse" x1="231.189" x2="259.262" xlink:href="#lg10" y1="343.177" y2="371.251"/><linearGradient id="SVGID_48_" gradientUnits="userSpaceOnUse" x1="251.466" x2="279.535" xlink:href="#lg10" y1="343.18" y2="371.249"/><linearGradient id="SVGID_49_" gradientUnits="userSpaceOnUse" x1="271.766" x2="299.754" xlink:href="#lg10" y1="343.155" y2="371.143"/><linearGradient id="SVGID_50_" gradientUnits="userSpaceOnUse" x1="292.117" x2="319.959" xlink:href="#lg10" y1="343.091" y2="370.933"/><linearGradient id="SVGID_51_" gradientUnits="userSpaceOnUse" x1="312.49" x2="340.112" xlink:href="#lg10" y1="342.999" y2="370.62"/><linearGradient id="SVGID_52_" gradientUnits="userSpaceOnUse" x1="332.906" x2="360.252" xlink:href="#lg10" y1="342.875" y2="370.221"/><linearGradient id="SVGID_53_" gradientUnits="userSpaceOnUse" x1="353.611" x2="378.824" xlink:href="#lg10" y1="342.555" y2="367.768"/><linearGradient id="lg11"><stop offset="0" stop-color="#fff"/><stop offset=".9959" stop-color="#c4cbff"/></linearGradient><linearGradient id="SVGID_54_" gradientUnits="userSpaceOnUse" x1="255.998" x2="255.998" xlink:href="#lg11" y1="336.181" y2="378.447"/><linearGradient id="SVGID_55_" gradientUnits="userSpaceOnUse" x1="255.998" x2="255.998" xlink:href="#lg8" y1="341.287" y2="373.594"/><linearGradient id="SVGID_56_" gradientUnits="userSpaceOnUse" x1="255.998" x2="255.998" xlink:href="#lg11" y1="336.011" y2="379.278"/><linearGradient id="SVGID_57_" gradientUnits="userSpaceOnUse" x1="255.998" x2="255.998" xlink:href="#lg8" y1="341.032" y2="373.729"/><linearGradient id="SVGID_58_" gradientUnits="userSpaceOnUse" x1="213.36" x2="213.36" y1="36.104" y2="73.255"><stop offset="0" stop-color="#e9edff"/><stop offset=".9959" stop-color="#c4cbff"/></linearGradient><linearGradient id="SVGID_59_" gradientUnits="userSpaceOnUse" x1="345.648" x2="345.648" y1="8.492" y2="99.937"><stop offset="0" stop-color="#7b7da1"/><stop offset="1" stop-color="#424566"/></linearGradient><g><g><g><path d="m484.42 496.59h-31.17c-7.59 0-13.74-6.15-13.74-13.74v-96.47c0-7.59 6.15-13.74 13.74-13.74h31.17c7.59 0 13.74 6.15 13.74 13.74v96.47c0 7.59-6.15 13.74-13.74 13.74z" fill="url(#SVGID_1_)"/><path d="m58.75 496.59h-31.16c-7.59 0-13.74-6.15-13.74-13.74v-96.47c0-7.59 6.15-13.74 13.74-13.74h31.17c7.59 0 13.74 6.15 13.74 13.74v96.47c0 7.59-6.16 13.74-13.75 13.74z" fill="url(#SVGID_2_)"/></g><path d="m15.57 389.27c.86 3.73 4.4 34.53 6.88 53.15.96 7.18 7.08 12.54 14.33 12.54h438.44c7.25 0 13.37-5.36 14.33-12.54 2.48-18.62 6.02-49.41 6.88-53.15 2.7-11.78 7.03-23.19 8.41-35.25 1.74-15.28-.17-30.8-5.98-45.06-9.56-23.46-26.21-43.26-35.67-66.78-9.88-24.58-21.28-48.51-31.99-72.73-15-33.92-48.57-55.81-85.66-55.81h-179.08c-37.09 0-70.65 21.9-85.66 55.81-10.71 24.22-22.11 48.14-31.99 72.73-9.45 23.53-26.1 43.32-35.67 66.78-5.81 14.26-7.72 29.79-5.98 45.06 1.38 12.07 5.71 23.48 8.41 35.25z" fill="url(#SVGID_3_)"/><g><path d="m403.99 386.98c-1.47 0-2.8-.75-3.57-2s-.83-2.77-.17-4.07l13.11-25.96c4.84-9.58 11.92-17.6 20.48-23.2 8.88-5.8 23.39-12.88 42.12-13.68l.19-.01.19.02c.5.04 12.21 1.19 12.21 19.5v17.12c0 6.75-3.76 12.78-9.81 15.74-11.87 5.79-34.41 13.36-74.41 16.54l-.13.01z" fill="url(#SVGID_4_)"/><g><path d="m403.09 382.35 13.11-25.96c4.47-8.86 11.07-16.53 19.37-21.96 9.36-6.12 23.08-12.42 40.51-13.16 0 0 9.27.74 9.27 16.32v17.12c0 5.47-3.1 10.47-8.02 12.87-10.52 5.13-32.62 12.99-73.26 16.22-.77.05-1.33-.76-.98-1.45z" fill="url(#SVGID_5_)"/><g><path d="m461.9 333.74c-8.76 0-15.88 7.1-15.88 15.88s7.12 15.88 15.88 15.88c8.78 0 15.88-7.1 15.88-15.88s-7.1-15.88-15.88-15.88zm0 27.1c-6.19 0-11.22-5.03-11.22-11.22s5.03-11.22 11.22-11.22 11.22 5.03 11.22 11.22-5.03 11.22-11.22 11.22z" fill="url(#SVGID_6_)"/><path d="m461.9 357.61c-4.41 0-7.99-3.58-7.99-7.99s3.58-7.99 7.99-7.99 7.99 3.58 7.99 7.99-3.58 7.99-7.99 7.99z" fill="url(#SVGID_7_)"/><path d="m461.9 352.51c-1.6 0-2.89-1.3-2.89-2.89s1.3-2.89 2.89-2.89 2.89 1.3 2.89 2.89-1.3 2.89-2.89 2.89z" fill="url(#SVGID_8_)"/><path d="m446.73 350.34c0 4.21 1.63 8.04 4.31 10.87-3.1-2.91-5.03-7.02-5.03-11.59 0-8.78 7.12-15.88 15.88-15.88 4.57 0 8.68 1.93 11.59 5.01-2.83-2.67-6.66-4.29-10.87-4.29-8.76 0-15.88 7.1-15.88 15.88zm23.43-8.27c1.84 2 2.95 4.64 2.95 7.55 0 6.19-5.03 11.22-11.22 11.22-2.91 0-5.55-1.12-7.55-2.95 2.03 2.25 4.98 3.67 8.27 3.67 6.19 0 11.22-5.03 11.22-11.22.01-3.29-1.41-6.24-3.67-8.27z" fill="url(#SVGID_9_)"/></g><g><path d="m431 357.07c-5 0-9.06 4.05-9.06 9.06s4.06 9.06 9.06 9.06c5.01 0 9.06-4.05 9.06-9.06s-4.05-9.06-9.06-9.06zm0 15.46c-3.53 0-6.4-2.87-6.4-6.4s2.87-6.4 6.4-6.4 6.4 2.87 6.4 6.4-2.87 6.4-6.4 6.4z" fill="url(#SVGID_10_)"/><path d="m431 369.57c-1.9 0-3.44-1.54-3.44-3.44s1.54-3.44 3.44-3.44 3.44 1.54 3.44 3.44-1.54 3.44-3.44 3.44z" fill="url(#SVGID_11_)"/><path d="m431 367.38c-.69 0-1.25-.56-1.25-1.25s.56-1.25 1.25-1.25 1.25.56 1.25 1.25-.56 1.25-1.25 1.25z" fill="url(#SVGID_12_)"/><path d="m422.35 366.54c0 2.4.93 4.59 2.46 6.2-1.77-1.66-2.87-4.01-2.87-6.61 0-5.01 4.06-9.06 9.06-9.06 2.6 0 4.95 1.1 6.61 2.86-1.61-1.52-3.8-2.45-6.2-2.45-5 0-9.06 4.05-9.06 9.06zm13.37-4.72c1.05 1.14 1.68 2.65 1.68 4.31 0 3.53-2.87 6.4-6.4 6.4-1.66 0-3.17-.64-4.31-1.68 1.16 1.28 2.84 2.09 4.72 2.09 3.53 0 6.4-2.87 6.4-6.4 0-1.88-.81-3.56-2.09-4.72z" fill="url(#SVGID_13_)"/></g><path d="m403.09 382.35 13.11-25.96c4.47-8.86 11.07-16.53 19.37-21.96 9.36-6.12 23.08-12.42 40.51-13.16 0 0 9.27.74 9.27 16.32v17.12c0 5.47-3.1 10.47-8.02 12.87-10.52 5.13-32.62 12.99-73.26 16.22-.77.05-1.33-.76-.98-1.45z" fill="url(#SVGID_14_)"/><path d="m476.09 321.26c-17.43.73-31.16 7.04-40.51 13.17-8.32 5.43-14.91 13.1-19.38 21.95l-13.1 25.97c-.35.69.21 1.5.97 1.44.48-.03.96-.08 1.44-.13l12.74-25.22c4.47-8.86 11.06-16.54 19.38-21.96 9.04-5.93 22.18-12.02 38.8-13.08 1.96-.13 3.95.39 5.53 1.56.02.02.04.03.06.05-2.66-3.49-5.93-3.75-5.93-3.75z" fill="url(#SVGID_15_)"/></g></g><path d="m428.23 197.86c-3.35-7.39-6.82-15.02-10.17-22.6-12.7-28.7-41.16-47.26-72.51-47.26h-179.09c-31.36 0-59.82 18.55-72.53 47.26-3.35 7.57-6.8 15.21-10.15 22.59-6.35 14.03-12.88 28.46-18.87 42.89 60.57 5.22 124.71 8.01 191.09 8.01s130.52-2.79 191.08-8.01c-5.97-14.42-12.49-28.85-18.85-42.88z" fill="url(#SVGID_16_)"/><path d="m447.02 240.56-6.96.75-.69.08h-.21c-58.23 4.8-119.66 7.36-183.16 7.36s-124.95-2.55-183.18-7.36h-.21l-.69-.08-6.96-.75-14.88-1.6s28.3 93.58 82.38 93.58h247.05c54.08 0 82.36-93.58 82.36-93.58z" fill="url(#SVGID_17_)"/><g><path d="m108.02 386.98c1.47 0 2.8-.75 3.57-2s.83-2.77.17-4.07l-13.11-25.96c-4.84-9.58-11.92-17.6-20.48-23.2-8.88-5.8-23.39-12.88-42.12-13.68l-.19-.01-.19.02c-.5.04-12.21 1.19-12.21 19.5v17.12c0 6.75 3.76 12.78 9.81 15.74 11.87 5.79 34.41 13.36 74.41 16.54l.13.01z" fill="url(#SVGID_18_)"/><g><path d="m108.91 382.35-13.11-25.96c-4.47-8.86-11.07-16.53-19.37-21.96-9.36-6.12-23.08-12.42-40.51-13.16 0 0-9.27.74-9.27 16.32v17.12c0 5.47 3.1 10.47 8.02 12.87 10.52 5.13 32.62 12.99 73.26 16.22.78.05 1.33-.76.98-1.45z" fill="url(#SVGID_19_)"/><g><path d="m34.23 349.62c0 8.78 7.1 15.88 15.88 15.88 8.76 0 15.88-7.1 15.88-15.88s-7.12-15.88-15.88-15.88c-8.78 0-15.88 7.1-15.88 15.88zm4.66 0c0-6.19 5.03-11.22 11.22-11.22s11.22 5.03 11.22 11.22-5.03 11.22-11.22 11.22-11.22-5.03-11.22-11.22z" fill="url(#SVGID_20_)"/><path d="m42.12 349.62c0-4.41 3.58-7.99 7.99-7.99s7.99 3.58 7.99 7.99-3.58 7.99-7.99 7.99-7.99-3.58-7.99-7.99z" fill="url(#SVGID_21_)"/><path d="m47.21 349.62c0-1.6 1.3-2.89 2.89-2.89s2.89 1.3 2.89 2.89-1.3 2.89-2.89 2.89-2.89-1.29-2.89-2.89z" fill="url(#SVGID_22_)"/><path d="m49.39 334.46c-4.21 0-8.04 1.63-10.87 4.29 2.91-3.08 7.02-5.01 11.59-5.01 8.76 0 15.88 7.1 15.88 15.88 0 4.57-1.93 8.68-5.03 11.59 2.68-2.83 4.31-6.66 4.31-10.87 0-8.78-7.12-15.88-15.88-15.88zm-11.22 15.88c0 6.19 5.03 11.22 11.22 11.22 3.29 0 6.24-1.42 8.27-3.67-2 1.84-4.64 2.95-7.55 2.95-6.19 0-11.22-5.03-11.22-11.22 0-2.9 1.12-5.55 2.95-7.55-2.25 2.03-3.67 4.98-3.67 8.27z" fill="url(#SVGID_23_)"/></g><g><path d="m71.94 366.13c0 5.01 4.05 9.06 9.06 9.06 5 0 9.06-4.05 9.06-9.06s-4.06-9.06-9.06-9.06c-5.01 0-9.06 4.05-9.06 9.06zm2.66 0c0-3.53 2.87-6.4 6.4-6.4s6.4 2.87 6.4 6.4-2.87 6.4-6.4 6.4-6.4-2.87-6.4-6.4z" fill="url(#SVGID_24_)"/><path d="m77.56 366.13c0-1.9 1.54-3.44 3.44-3.44s3.44 1.54 3.44 3.44-1.54 3.44-3.44 3.44-3.44-1.54-3.44-3.44z" fill="url(#SVGID_25_)"/><path d="m79.75 366.13c0-.69.56-1.25 1.25-1.25s1.25.56 1.25 1.25-.56 1.25-1.25 1.25-1.25-.56-1.25-1.25z" fill="url(#SVGID_26_)"/><path d="m80.59 357.48c-2.4 0-4.59.93-6.2 2.45 1.66-1.76 4.01-2.86 6.61-2.86 5 0 9.06 4.05 9.06 9.06 0 2.6-1.1 4.95-2.87 6.61 1.53-1.61 2.46-3.8 2.46-6.2 0-5.01-4.06-9.06-9.06-9.06zm-6.4 9.06c0 3.53 2.87 6.4 6.4 6.4 1.88 0 3.56-.81 4.72-2.09-1.14 1.05-2.65 1.68-4.31 1.68-3.53 0-6.4-2.87-6.4-6.4 0-1.66.64-3.17 1.68-4.31-1.28 1.16-2.09 2.84-2.09 4.72z" fill="url(#SVGID_27_)"/></g><path d="m108.91 382.35-13.11-25.96c-4.47-8.86-11.07-16.53-19.37-21.96-9.36-6.12-23.08-12.42-40.51-13.16 0 0-9.27.74-9.27 16.32v17.12c0 5.47 3.1 10.47 8.02 12.87 10.52 5.13 32.62 12.99 73.26 16.22.78.05 1.33-.76.98-1.45z" fill="url(#SVGID_28_)"/><path d="m35.92 321.26c17.43.73 31.16 7.04 40.51 13.17 8.32 5.43 14.91 13.1 19.38 21.95l13.1 25.97c.35.69-.21 1.5-.97 1.44-.48-.03-.96-.08-1.44-.13l-12.74-25.22c-4.47-8.86-11.06-16.54-19.38-21.96-9.04-5.93-22.18-12.02-38.8-13.08-1.96-.13-3.95.39-5.53 1.56-.02.02-.04.03-.06.05 2.66-3.49 5.93-3.75 5.93-3.75z" fill="url(#SVGID_29_)"/></g></g><g><path d="m385.7 410.99c-.97.14-1.56 1.18-1.16 2.07 5.39 12.04 15.54 25.76 29.84 25.76 7.78 0 32.28-2.31 40.03-3.12 6.16-.64 15.08-1.06 20.2-5 2.74-2.11 3.09-5.97 3.16-9.16.14-6.54.8-16.28-5.33-20.7-3.26-2.35-6.69-1.21-10.33-.68-19.91 2.9-56.52 7.9-76.41 10.83z" fill="url(#SVGID_30_)"/><path d="m408.91 410.54c-.84.12-1.35 1.02-1 1.79 4.66 10.42 13.45 22.29 25.82 22.29 6.74 0 13.49-.08 20.19-.79 5.33-.56 13.05-.92 17.48-4.33 2.37-1.82 2.67-5.16 2.73-7.93.12-5.66.69-14.09-4.61-17.91-2.82-2.03-5.79-1.05-8.94-.59-17.22 2.51-34.45 4.93-51.67 7.47z" fill="url(#SVGID_31_)"/></g><g><path d="m126.31 410.99c.97.14 1.56 1.18 1.16 2.07-5.39 12.04-15.54 25.76-29.84 25.76-7.78 0-32.28-2.31-40.03-3.12-6.16-.64-15.08-1.06-20.2-5-2.74-2.11-3.09-5.97-3.16-9.16-.14-6.54-.8-16.28 5.33-20.7 3.26-2.35 6.69-1.21 10.33-.68 19.9 2.9 56.51 7.9 76.41 10.83z" fill="url(#SVGID_32_)"/><path d="m103.09 410.54c.84.12 1.35 1.02 1 1.79-4.66 10.42-13.45 22.29-25.82 22.29-6.74 0-13.49-.08-20.19-.79-5.33-.56-13.05-.92-17.48-4.33-2.37-1.82-2.67-5.16-2.73-7.93-.12-5.66-.69-14.09 4.61-17.91 2.82-2.03 5.79-1.05 8.94-.59 17.22 2.51 34.46 4.93 51.67 7.47z" fill="url(#SVGID_33_)"/></g><g><path d="m387.04 444.73c-9.99 0-19.2-5.39-23.99-14.08l-4.36-7.89c-5.81-10.57-17.02-17.14-29.19-17.14h-146.73c-12.18 0-23.4 6.58-29.21 17.14l-4.36 7.89c-4.79 8.68-14 14.08-23.99 14.08h-102.63c.32 1.85 1.01 3.58 1.98 5.09 2.55 4.09 7.1 6.74 12.21 6.74h438.45c5.11 0 9.66-2.65 12.23-6.74.97-1.52 1.66-3.24 1.98-5.09z" fill="url(#SVGID_34_)"/><path d="m488.46 447.92c-2.27 5.14-7.39 8.64-13.25 8.64h-438.44c-5.86 0-10.98-3.5-13.23-8.64h103.22c9.88 0 18.98-5.39 23.7-14.08l4.31-7.89c5.75-10.57 16.82-17.14 28.86-17.14h145c12.04 0 23.11 6.58 28.86 17.14l4.31 7.89c4.72 8.68 13.82 14.08 23.7 14.08z" fill="url(#SVGID_35_)"/></g><path d="m506.03 209.85c-3.27-2.36-7.28-3.48-11.32-3.48h-11.92c-3.94 0-6.91 1.23-9.15 2.89-3.8 2.83-5.86 7.44-5.86 12.18v9.86h40.86c3.16-4.87 3.35-10.26 3.35-10.26.01-5.41-2.86-8.95-5.96-11.19z" fill="url(#SVGID_36_)"/><path d="m458.7 231.32c1.09 2.54 2.14 5.09 3.19 7.65h31.35c8.19 0 12.8-3.65 15.4-7.66h-48.44z" fill="url(#SVGID_37_)"/><path d="m44.23 221.44c0-4.74-2.06-9.35-5.87-12.18-2.22-1.66-5.2-2.89-9.15-2.89h-11.91c-4.04 0-8.04 1.12-11.32 3.48-3.11 2.24-5.98 5.78-5.98 11.19 0 0 .19 5.35 3.32 10.2h40.91z" fill="url(#SVGID_38_)"/><path d="m44.23 231.24h-40.91c2.59 4.03 7.21 7.73 15.44 7.73h31.34c1.04-2.55 2.11-5.11 3.18-7.65z" fill="url(#SVGID_39_)"/><path d="m195.98 128 67.73 120.73c-2.55.02-5.12.02-7.69.02-18.29 0-36.42-.21-54.33-.64l-64.29-114.57c9.1-3.61 18.93-5.54 29.07-5.54zm36.02 0h-18.28l67.66 120.62c6.07-.08 12.1-.16 18.12-.29z" fill="url(#SVGID_40_)"/><g><path d="m394.52 330.07c-4.76 1.6-9.75 2.47-14.99 2.47h-247.05c-5.25 0-10.25-.88-15-2.47-1.1 5.94 1.34 12.24 3.59 17.78 3.94 9.78 10.34 18.61 17.33 26.5 3.58 4.05 9.07 6.86 13.22 7.01 34.83 1.21 69.59 1.82 104.39 1.82s69.56-.61 104.37-1.82c4.17-.14 9.64-2.95 13.23-7.01 6.98-7.89 13.39-16.71 17.33-26.5 2.26-5.53 4.67-11.82 3.58-17.78z" fill="url(#SVGID_41_)"/><g><path d="m147.14 332.55v47.82c-1.8-.67-3.63-1.67-5.32-2.91v-44.91z" fill="url(#SVGID_42_)"/><path d="m167.42 332.55v49.32c-1.77-.05-3.55-.11-5.32-.16v-49.16z" fill="url(#SVGID_43_)"/><path d="m187.69 332.55v49.84c-1.77-.03-3.55-.07-5.32-.13v-49.71z" fill="url(#SVGID_44_)"/><path d="m207.97 332.55v50.23c-1.78-.02-3.55-.05-5.32-.08v-50.15z" fill="url(#SVGID_45_)"/><path d="m228.24 332.55v50.5c-1.77-.02-3.54-.03-5.31-.06v-50.44z" fill="url(#SVGID_46_)"/><path d="m248.52 332.55v50.61c-1.77.01-3.55 0-5.32-.01v-50.6z" fill="url(#SVGID_47_)"/><path d="m268.8 332.55v50.6c-1.77.01-3.55.02-5.32.01v-50.61z" fill="url(#SVGID_48_)"/><path d="m289.07 332.55v50.44c-1.77.03-3.54.04-5.32.06v-50.5z" fill="url(#SVGID_49_)"/><path d="m309.35 332.55v50.15c-1.77.03-3.55.07-5.32.08v-50.23z" fill="url(#SVGID_50_)"/><path d="m329.62 332.55v49.71c-1.78.06-3.55.1-5.32.13v-49.84z" fill="url(#SVGID_51_)"/><path d="m349.9 332.55v49.16c-1.77.05-3.55.11-5.32.16v-49.32z" fill="url(#SVGID_52_)"/><path d="m370.18 332.55v44.91c-1.69 1.25-3.52 2.25-5.32 2.92v-47.83z" fill="url(#SVGID_53_)"/></g><g><circle cx="256" cy="357.52" fill="url(#SVGID_54_)" r="21.38"/><circle cx="256" cy="357.52" fill="url(#SVGID_55_)" r="16.56"/><path d="m256 339.63-15.08 26.86h30.15z" fill="url(#SVGID_56_)"/><path d="m249.46 361.49 6.54-11.65 6.53 11.65z" fill="url(#SVGID_57_)"/></g></g></g><g><path d="m303.01 71.08h-112.35c-.63 0-1.21-.33-1.54-.87l-2.48-4.14c-.67-1.12-2.27-1.17-3.01-.1l-2.99 4.34c-.33.48-.88.77-1.47.77h-9.96c-.53 0-1.04-.24-1.38-.65l-4.13-4.99c-.74-.9-2.13-.86-2.82.08l-3.55 4.83c-.34.46-.87.73-1.44.73h-17.5c-.51 0-.99-.21-1.33-.59l-12.88-14.3c-.61-.68-.61-1.72 0-2.4l12.88-14.3c.34-.38.82-.59 1.33-.59h164.62z" fill="url(#SVGID_58_)"/><path d="m385.05 23.1c-2.04-2.45-4.91-4.21-8.23-4.82-10.3-1.91-20.74-2.87-31.17-2.87-10.44 0-20.87.96-31.17 2.87-6.65 1.23-11.47 7.03-11.47 13.79v45.87c0 3.38 1.21 6.52 3.24 8.97 2.04 2.45 4.91 4.2 8.23 4.82 20.6 3.82 41.73 3.82 62.34 0 6.65-1.23 11.47-7.03 11.47-13.79v-45.87c0-3.38-1.21-6.52-3.24-8.97zm-11.32 42.5c0 3.24-2.63 5.87-5.87 5.87s-5.87-2.63-5.87-5.87v-21.19c0-3.24 2.63-5.87 5.87-5.87 1.62 0 3.09.66 4.15 1.72s1.72 2.53 1.72 4.15z" fill="url(#SVGID_59_)"/></g></g></svg>