<svg id="Layer_1" enable-background="new 0 0 512 512" height="512" viewBox="0 0 512 512" width="512" xmlns="http://www.w3.org/2000/svg"><g><g clip-rule="evenodd" fill-rule="evenodd"><path d="m442.7 269.3 23.6 29.4c10.5 13.1 15.6 27.6 15.6 44.4v62.2c0 13.2-2.3 25.1-9.8 35.9l-9.4 13.5c-1.3 1.9-3.3 3-5.6 3v24.3c0 16-13.2 29.2-29.2 29.2h-21.5c-16 0-29.2-13.2-29.2-29.2v-24.2h-242.6v24.2c0 16-13.2 29.2-29.2 29.2h-21.5c-16 0-29.2-13.2-29.2-29.2v-24.2c-2.3 0-4.3-1-5.7-3l-9.4-13.5c-7.5-10.9-9.8-22.7-9.8-35.9v-62.2c0-16.8 5.1-31.3 15.7-44.4l23.6-29.4 1.9-4.2h-40c-12.7 0-23-10.3-23-23v-13c0-3.8 3.1-6.9 6.9-6.9h30.6c3.6 0 6.6 1.4 8.9 4.2l21.9 27 36.7-82.9c2.2-4.9 7-7.8 12.4-7.8h261.4c5.4 0 10.2 2.9 12.4 7.8l36.6 82.9 22-27c2.2-2.8 5.3-4.2 8.9-4.2h30.6c3.8 0 6.9 3.1 6.9 6.9v13c0 12.7-10.3 23-23 23h-40.1z" fill="#f05475"/><path d="m442.7 269.3 23.6 29.4c10.5 13.1 15.6 27.6 15.6 44.4v62.2c0 13.2-2.3 25.1-9.8 35.9l-9.4 13.5c-1.3 1.9-3.3 3-5.6 3h-402.3c-2.3 0-4.3-1-5.7-3l-9.4-13.5c-7.5-10.9-9.8-22.7-9.8-35.9 6.2-23.1 29.7-33.2 75-33.2h194.9c45.9 0 130.6-35.5 112.6-102.8l-43.4-106.6h17.5c5.4 0 10.2 2.9 12.4 7.8l36.6 82.9 22-27c2.2-2.8 5.3-4.2 8.9-4.2h30.6c3.8 0 6.9 3.1 6.9 6.9v13c0 12.7-10.3 23-23 23h-40.1z" fill="#e05375"/><path d="m409.2 457.8h-306.4l18.9-37.2c8-15.8 23.9-25.6 41.7-25.6h185.4c17.8 0 33.6 9.8 41.7 25.6z" fill="#b5adb6"/><g fill="#aea8af"><path d="m109.6 444.4-6.8 13.4h31.8l6.8-13.4z"/><path d="m390.4 420.6c-4.5-8.9-11.5-15.9-19.9-20.3l-9.4 18.5c-1.2 2.3-2.5 4.5-4 6.5 3.4 1.7 6.1 4.5 7.9 8.1l12.4 24.4h31.8z"/></g><path d="m315 64c14.4-14.4 14.4-37.9 0-52.3s-37.9-14.4-52.3 0l-4 4c-1.5 1.5-3.9 1.5-5.3 0l-4-4c-14.4-14.4-37.9-14.4-52.3 0-14.5 14.3-14.5 37.9-.1 52.3l52.4 52.4c3.7 3.7 9.6 3.7 13.3 0z" fill="#f05475"/><path d="m315 64c14.4-14.4 14.4-37.9 0-52.3-7.8-7.8-18.3-11.4-28.5-10.7 3.4 1.8 6.6 4 9.4 6.9 14.8 14.8 14.8 39 0 53.8l-50.6 50.7 4.1 4.1c3.7 3.7 9.6 3.7 13.3 0z" fill="#e05375"/><path d="m411.7 79.1c-3.7-14 4.6-28.5 18.6-32.3 14-3.7 28.5 4.6 32.3 18.7l1 3.9c.4 1.4 1.8 2.3 3.3 1.9l3.9-1c14-3.8 28.5 4.6 32.3 18.6s-4.6 28.5-18.6 32.3l-50.9 13.7c-3.6 1-7.3-1.2-8.2-4.7z" fill="#f05475"/><path d="m100.3 79.1c3.8-14-4.6-28.5-18.6-32.3-14-3.7-28.5 4.6-32.3 18.7l-1.1 3.9c-.4 1.4-1.8 2.3-3.3 1.9l-3.9-1c-14-3.8-28.5 4.6-32.3 18.6-3.7 14 4.6 28.5 18.6 32.3l51 13.7c3.5 1 7.2-1.2 8.2-4.7z" fill="#f05475"/><path d="m366.6 407.8c-5.4-2.8-11.5-4.4-17.9-4.4h-185.4c-14.6 0-27.5 8-34.1 20.9l-10.1 20h-9.5l12.1-23.9c8-15.8 23.9-25.6 41.7-25.6h185.4c7.8 0 15.2 1.9 21.7 5.3z" fill="#b6b2b7"/><path d="m409.2 457.8h-9.5l-16.9-33.4c-3.7-7.3-9.3-13-16.2-16.6l3.8-7.6c8.4 4.4 15.4 11.4 19.9 20.3zm-290.1-13.4-6.8 13.4h-9.5l6.8-13.4z" fill="#aeacaf"/><path d="m134.6 457.8h242.8l-12.4-24.4c-3.2-6.3-9.2-10-16.3-10h-185.4c-7.1 0-13.2 3.7-16.4 10z" fill="#a79ba7"/><path d="m134.6 457.8h242.8l-12.4-24.4c-1.8-3.6-4.6-6.4-7.9-8.1-8.7 12-22.5 19.1-37.7 19.1h-178z" fill="#9b919b"/><path d="m111.6 308.7 11.2 10c4.5 4 7.1 8.8 8.1 14.7l2.7 17c.8 4.8-.9 9.4-4.6 12.6s-8.4 4.2-13.1 2.7l-21.2-6.6c-8.7-2.7-15.1-9-17.9-17.7s-1.4-17.5 4.1-24.9l3.8-5.1c3.2-4.3 7.6-6.8 12.9-7.3 5.2-.5 10 1 14 4.6z" fill="#8bb3d8"/><path d="m400.4 308.7-11.1 10c-4.5 4-7.1 8.8-8.1 14.7l-2.7 17c-.8 4.8.9 9.4 4.6 12.6s8.4 4.2 13.1 2.7l21.2-6.6c8.8-2.7 15.1-9 17.9-17.7s1.4-17.5-4.1-24.9l-3.8-5.1c-3.2-4.3-7.5-6.8-12.8-7.3-5.4-.5-10.2 1-14.2 4.6z" fill="#8bb3d8"/><path d="m379.1 346.7-.6 3.7c-.8 4.8.9 9.4 4.6 12.6s8.4 4.2 13.1 2.7l21.2-6.6c8.8-2.7 15.1-9 17.9-17.7s1.4-17.5-4.1-24.9l-3.8-5.1c-3.2-4.3-7.5-6.8-12.8-7.3-.6-.1-1.2-.1-1.8-.1-5.1 17.6-17.8 31.9-33.7 42.7z" fill="#80a7c4"/><path d="m435.8 394.7c-7.7 0-13.9 6.2-13.9 13.9s6.2 13.9 13.9 13.9 13.9-6.2 13.9-13.9c0-7.6-6.2-13.9-13.9-13.9zm-359.6 0c-7.7 0-13.9 6.2-13.9 13.9s6.2 13.9 13.9 13.9 13.9-6.2 13.9-13.9c0-7.6-6.2-13.9-13.9-13.9z" fill="#f6a22e"/><path d="m142.9 162.7h226.3l43.4 106.6h-313.2z" fill="#8bb3d8"/><path d="m269.2 298.9 1.8 5.7c.9 2.9 3.5 4.8 6.6 4.8h6c6.1 0 11.3 3.8 13.2 9.6s-.1 12-5.1 15.6l-4.7 3.4c-2.5 1.8-3.5 4.9-2.5 7.8l1.8 5.6c1.9 5.8-.1 12-5 15.6-5 3.6-11.4 3.6-16.4 0l-4.8-3.5c-2.5-1.8-5.7-1.8-8.2 0l-4.8 3.5c-5 3.6-11.4 3.6-16.4 0s-6.9-9.8-5-15.6l1.9-5.6c.9-2.9-.1-6-2.6-7.8l-4.8-3.5c-5-3.6-7-9.7-5.1-15.6s7.1-9.6 13.3-9.6h6c3.1 0 5.7-1.9 6.6-4.8l1.8-5.7c1.9-5.8 7.1-9.6 13.2-9.6 6.2 0 11.4 3.8 13.2 9.7z" fill="#f5ad01"/><path d="m256 352.5c11.1 0 20.1-9 20.1-20.1s-9-20.1-20.1-20.1-20.1 9-20.1 20.1 9 20.1 20.1 20.1z" fill="#faeb1c"/></g><path d="m442.7 269.3c1.3 1.6.9 4-.9 5-22.3 12.9-45.3 24.2-69.1 33.4-24.5 9.5-49.9 16.8-76.4 21.5 1.5-3.1 1.8-6.8.7-10.3-.7-2.1-1.8-3.9-3.2-5.4 25.4-4.5 49.8-11.5 73.2-20.6 23.3-9 45.8-20.1 67.7-32.8 1.7-1 4-.3 4.8 1.5z" fill="#504543"/><path d="m226.4 349.2c-3.9 2.2-6.9 6-10 9.9-4.7 5.9-9.6 12-18.2 16.1-4 1.9-8.7.2-10.6-3.8s-.2-8.7 3.8-10.6c5.2-2.5 8.9-7.1 12.5-11.6 4.5-5.7 8.9-11.2 16.2-14.7h.1l4.8 3.5c2.5 1.8 3.5 4.9 2.6 7.8z" fill="#504543"/><path d="m291.9 334.5c7.3 3.5 11.7 9 16.2 14.7 3.6 4.5 7.3 9.1 12.5 11.6 4 1.9 5.7 6.7 3.8 10.6-1.9 4-6.6 5.7-10.6 3.8-8.6-4.1-13.5-10.2-18.2-16.1-3.1-3.9-6.1-7.7-10-9.9l-1.1-3.4c-1-2.9 0-6 2.5-7.8z" fill="#504543"/><path clip-rule="evenodd" d="m100.3 79.1c3.8-14-4.6-28.5-18.6-32.3-7.6-2-15.3-.5-21.4 3.5 2.7-.1 5.5.2 8.2.9 14.4 3.9 23 18.8 19.1 33.2l-13.2 49.3 4 1.1c3.5 1 7.2-1.2 8.2-4.7z" fill="#e05375" fill-rule="evenodd"/><path clip-rule="evenodd" d="m484.5 121.1c14-3.7 22.4-18.3 18.6-32.3-2-7.6-7.2-13.5-13.7-16.8 1.4 2.3 2.6 4.8 3.3 7.6 3.9 14.4-4.8 29.3-19.2 33.2l-49.2 13.2 1.1 4c.9 3.6 4.6 5.7 8.2 4.7z" fill="#e05375" fill-rule="evenodd"/><path clip-rule="evenodd" d="m377.4 457.8h79.8v24.2c0 16-13.2 29.2-29.2 29.2h-21.5c-16 0-29.2-13.2-29.2-29.2v-24.2z" fill="#57555c" fill-rule="evenodd"/><path clip-rule="evenodd" d="m54.8 457.8h79.8v24.2c0 16-13.2 29.2-29.2 29.2h-21.5c-16 0-29.2-13.2-29.2-29.2v-24.2z" fill="#57555c" fill-rule="evenodd"/><path clip-rule="evenodd" d="m54.8 457.8h48v14.9c0 8.2-6.7 14.9-14.9 14.9h-32.6c-.4-1.8-.5-3.7-.5-5.6z" fill="#504f54" fill-rule="evenodd"/><path clip-rule="evenodd" d="m409.2 457.8h48v24.2c0 1.9-.2 3.7-.5 5.6h-32.6c-8.2 0-14.9-6.7-14.9-14.9z" fill="#504f54" fill-rule="evenodd"/><path d="m8 511.2c-4.4 0-8-3.6-8-8s3.6-8 8-8h496c4.4 0 8 3.6 8 8s-3.6 8-8 8z" fill="#414345"/><path d="m72.6 261.7c.8-1.8 3-2.6 4.8-1.5 21.9 12.7 44.4 23.8 67.7 32.8 23.5 9.1 47.8 16.1 73.2 20.6-1.4 1.5-2.6 3.3-3.2 5.4-1.2 3.6-.9 7.2.7 10.3-26.4-4.6-51.9-12-76.4-21.5-23.8-9.2-46.8-20.5-69.1-33.4-1.8-1-2.2-3.4-.9-5z" fill="#504543"/><path clip-rule="evenodd" d="m325.2 269.3h87.3l-43.4-106.6h-30.6l28 73.8c.1 0 11 32.8-41.3 32.8z" fill="#80a7c4" fill-rule="evenodd"/></g></svg>